<?xml version="1.0" standalone="no"?><!DOCTYPE svg PUBLIC "-//W3C//DTD SVG 1.1//EN" "http://www.w3.org/Graphics/SVG/1.1/DTD/svg11.dtd"><svg t="1607935765211" class="icon" viewBox="0 0 1024 1024" version="1.1" xmlns="http://www.w3.org/2000/svg" p-id="5506" width="128" height="128" xmlns:xlink="http://www.w3.org/1999/xlink"><defs><style type="text/css"></style></defs><path d="M213.333333 213.333333h213.333334v85.333334H213.333333z" fill="#ffffff" p-id="5507"></path><path d="M281.004461 220.66722l181.019336 181.019336-60.339779 60.339778L220.664682 281.006998z" fill="#ffffff" p-id="5508"></path><path d="M561.978555 401.685582l181.019336-181.019336 60.339778 60.339778L622.318333 462.02536z" fill="#ffffff" p-id="5509"></path><path d="M461.997943 622.372853l-181.019336 181.019336-60.339778-60.339779L401.658164 562.033074z" fill="#ffffff" p-id="5510"></path><path d="M743.023744 803.386512l-181.019336-181.019336 60.339779-60.339779L803.363523 743.046733z" fill="#ffffff" p-id="5511"></path><path d="M213.333333 725.333333h213.333334v85.333334H213.333333z" fill="#ffffff" p-id="5512"></path><path d="M298.666667 213.333333l0 213.333334-85.333334 0L213.333333 213.333333z" fill="#ffffff" p-id="5513"></path><path d="M597.333333 213.333333h213.333334v85.333334H597.333333z" fill="#ffffff" p-id="5514"></path><path d="M810.666667 213.333333l0 213.333334-85.333334 0L725.333333 213.333333z" fill="#ffffff" p-id="5515"></path><path d="M597.333333 725.333333h213.333334v85.333334H597.333333z" fill="#ffffff" p-id="5516"></path><path d="M810.666667 597.333333l0 213.333334-85.333334 0L725.333333 597.333333z" fill="#ffffff" p-id="5517"></path><path d="M298.666667 597.333333l0 213.333334-85.333334 0L213.333333 597.333333z" fill="#ffffff" p-id="5518"></path></svg>